<?xml version="1.0" encoding="UTF-8"?>
<svg width="24px" height="24px" viewBox="0 0 24 24" stroke-width="1.5" fill="none" xmlns="http://www.w3.org/2000/svg" color="#FFFFFF">
  <path d="M8 14.5c-3-4.5 1.462-8 4.5-8 3.038 0.5 5.5 3 4 7-1 2-3 2-3.5 0-1-2 0.9-1.463 1-2.5 0.064-0.525-0.597-1-1.25-1C12 10 11 12 12 14c0.5 1 0.8 2.5 0.5 4 M12 9.5V21.5" stroke="#FFFFFF" stroke-width="1.5" stroke-linecap="round" stroke-linejoin="round"></path>
  <path d="M12 22c5.523 0 10-4.477 10-10S17.523 2 12 2 2 6.477 2 12s4.477 10 10 10z" stroke="#FFFFFF" stroke-width="1.5" stroke-linecap="round" stroke-linejoin="round"></path>
</svg>