<?xml version="1.0" encoding="UTF-8"?>
<svg width="24px" height="24px" viewBox="0 0 24 24" stroke-width="1.5" fill="none" xmlns="http://www.w3.org/2000/svg" color="#F67280">
  <path d="M12 2c3.926 2.65 7.84 2.088 9 1.5V12c0 2.5-1 8-9 10-8-2-9-7.5-9-10V3.5c1.16.588 5.074 1.15 9-1.5z" stroke="#F67280" stroke-width="1.5" stroke-linecap="round" stroke-linejoin="round"></path>
  <path d="M11.646 8.646a.5.5 0 01.708 0l.646.647.646-.647a.5.5 0 01.708.708L13.707 10l.647.646a.5.5 0 01-.708.708L13 10.707l-.646.647a.5.5 0 01-.708-.708L12.293 10l-.647-.646a.5.5 0 010-.708z" fill="#F67280" stroke="#F67280" stroke-width="1.5"></path>
</svg>